<svg width="45" height="45" viewBox="0 0 45 45" fill="none" xmlns="http://www.w3.org/2000/svg">
<path d="M39.525 13.125C39.201 12.5637 38.7371 12.0959 38.1785 11.7673C37.6198 11.4387 36.9855 11.2604 36.3375 11.25H12.3375L11.25 7.0125C11.1401 6.60345 10.895 6.24365 10.5545 5.9917C10.214 5.73975 9.79831 5.6105 9.375 5.625H5.625C5.12772 5.625 4.65081 5.82255 4.29917 6.17418C3.94754 6.52581 3.75 7.00272 3.75 7.5C3.75 7.99728 3.94754 8.4742 4.29917 8.82583C4.65081 9.17746 5.12772 9.375 5.625 9.375H7.95L13.125 28.6125C13.2349 29.0216 13.48 29.3814 13.8205 29.6333C14.161 29.8853 14.5767 30.0145 15 30H31.875C32.2213 29.999 32.5605 29.902 32.855 29.72C33.1495 29.538 33.3879 29.278 33.5438 28.9688L39.6938 16.6688C39.9603 16.11 40.0844 15.494 40.055 14.8757C40.0255 14.2573 39.8434 13.6559 39.525 13.125ZM30.7125 26.25H16.425L13.3688 15H36.3375L30.7125 26.25Z" fill="#A5597D"/>
<path d="M14.0625 39.375C15.6158 39.375 16.875 38.1158 16.875 36.5625C16.875 35.0092 15.6158 33.75 14.0625 33.75C12.5092 33.75 11.25 35.0092 11.25 36.5625C11.25 38.1158 12.5092 39.375 14.0625 39.375Z" fill="#A5597D"/>
<path d="M32.8125 39.375C34.3658 39.375 35.625 38.1158 35.625 36.5625C35.625 35.0092 34.3658 33.75 32.8125 33.75C31.2592 33.75 30 35.0092 30 36.5625C30 38.1158 31.2592 39.375 32.8125 39.375Z" fill="#A5597D"/>
</svg>
