<svg width="43" height="43" viewBox="0 0 43 43" fill="none" xmlns="http://www.w3.org/2000/svg">
<path d="M21.4999 23.2917C22.4894 23.2917 23.2916 22.4896 23.2916 21.5C23.2916 20.5105 22.4894 19.7084 21.4999 19.7084C20.5104 19.7084 19.7083 20.5105 19.7083 21.5C19.7083 22.4896 20.5104 23.2917 21.4999 23.2917Z" fill="#A5597D"/>
<path d="M28.6667 23.2917C29.6562 23.2917 30.4583 22.4896 30.4583 21.5C30.4583 20.5105 29.6562 19.7084 28.6667 19.7084C27.6772 19.7084 26.875 20.5105 26.875 21.5C26.875 22.4896 27.6772 23.2917 28.6667 23.2917Z" fill="#A5597D"/>
<path d="M14.3334 23.2917C15.3229 23.2917 16.1251 22.4896 16.1251 21.5C16.1251 20.5105 15.3229 19.7084 14.3334 19.7084C13.3439 19.7084 12.5417 20.5105 12.5417 21.5C12.5417 22.4896 13.3439 23.2917 14.3334 23.2917Z" fill="#A5597D"/>
<path d="M34.1674 8.83294C31.2276 5.874 27.3476 4.03344 23.1963 3.62858C19.045 3.22371 14.8825 4.27991 11.4264 6.61509C7.97036 8.95026 5.43733 12.4181 4.26402 16.4207C3.09071 20.4233 3.35065 24.7098 4.99902 28.5413C5.17083 28.8974 5.2272 29.2982 5.16027 29.6879L3.58361 37.2667C3.52286 37.5573 3.53527 37.8584 3.6197 38.143C3.70414 38.4275 3.85797 38.6867 4.06736 38.8971C4.23901 39.0675 4.44338 39.2014 4.66816 39.2907C4.89295 39.38 5.13348 39.4229 5.37527 39.4167H5.73361L13.4019 37.8759C13.7917 37.829 14.1869 37.8846 14.5486 38.0371C18.3801 39.6855 22.6666 39.9454 26.6692 38.7721C30.6718 37.5988 34.1396 35.0658 36.4748 31.6097C38.81 28.1536 39.8662 23.9911 39.4613 19.8398C39.0564 15.6885 37.2159 11.8085 34.2569 8.86877L34.1674 8.83294ZM35.6544 23.8113C35.3041 25.9505 34.4732 27.9824 33.2241 29.7541C31.9751 31.5257 30.3404 32.991 28.4432 34.0396C26.5461 35.0883 24.4357 35.6929 22.2711 35.8081C20.1064 35.9233 17.9439 35.546 15.9461 34.7046C15.2376 34.4032 14.4765 34.2449 13.7065 34.2388C13.3702 34.2411 13.0346 34.2711 12.7032 34.3284L7.65069 35.3496L8.67194 30.2971C8.87534 29.2029 8.74422 28.0728 8.29569 27.0542C7.45431 25.0564 7.07701 22.8939 7.19219 20.7292C7.30737 18.5646 7.91202 16.4542 8.96065 14.557C10.0093 12.6599 11.4746 11.0252 13.2462 9.77616C15.0179 8.5271 17.0498 7.69615 19.189 7.34585C21.4345 6.97734 23.7354 7.14872 25.9015 7.84584C28.0675 8.54295 30.0365 9.74576 31.6455 11.3548C33.2545 12.9638 34.4573 14.9328 35.1545 17.0988C35.8516 19.2649 36.023 21.5658 35.6544 23.8113Z" fill="#A5597D"/>
</svg>
