<svg width="45" height="43" viewBox="0 0 45 43" fill="none" xmlns="http://www.w3.org/2000/svg">
<path d="M20.9509 37.7623C20.7211 37.7636 20.4933 37.7196 20.2806 37.6327C20.0679 37.5458 19.8744 37.4178 19.7113 37.256L6.14561 23.6729C4.44398 21.9535 3.4895 19.6321 3.4895 17.213C3.4895 14.7939 4.44398 12.4726 6.14561 10.7532C7.86054 9.04308 10.1836 8.08276 12.6055 8.08276C15.0273 8.08276 17.3504 9.04308 19.0653 10.7532L20.9509 12.6387L22.8364 10.7532C24.5514 9.04308 26.8744 8.08276 29.2963 8.08276C31.7182 8.08276 34.0412 9.04308 35.7561 10.7532C37.4578 12.4726 38.4122 14.7939 38.4122 17.213C38.4122 19.6321 37.4578 21.9535 35.7561 23.6729L22.1905 37.256C22.0273 37.4178 21.8339 37.5458 21.6211 37.6327C21.4084 37.7196 21.1806 37.7636 20.9509 37.7623ZM12.6055 11.5737C11.8664 11.5704 11.134 11.7137 10.4507 11.9954C9.76738 12.2772 9.14677 12.6916 8.62479 13.2149C7.57037 14.2749 6.97847 15.7092 6.97847 17.2043C6.97847 18.6994 7.57037 20.1337 8.62479 21.1937L20.9509 33.5372L33.277 21.1937C34.3314 20.1337 34.9233 18.6994 34.9233 17.2043C34.9233 15.7092 34.3314 14.2749 33.277 13.2149C32.2009 12.1983 30.7766 11.6319 29.2963 11.6319C27.8159 11.6319 26.3917 12.1983 25.3156 13.2149L22.1905 16.3575C22.0282 16.5212 21.8351 16.6511 21.6223 16.7397C21.4096 16.8283 21.1814 16.874 20.9509 16.874C20.7204 16.874 20.4922 16.8283 20.2794 16.7397C20.0667 16.6511 19.8736 16.5212 19.7113 16.3575L16.5861 13.2149C16.0641 12.6916 15.4435 12.2772 14.7602 11.9954C14.0769 11.7137 13.3445 11.5704 12.6055 11.5737Z" fill="#A5597D"/>
</svg>
