<svg width="40" height="40" viewBox="0 0 40 40" fill="none" xmlns="http://www.w3.org/2000/svg">
<path d="M37.0372 0H2.95278C1.32278 0 0 1.29167 0 2.88222V37.1139C0 38.7067 1.32278 40 2.95278 40H37.0372C38.6683 40 40 38.7067 40 37.1139V2.88222C40 1.29167 38.6683 0 37.0372 0ZM11.8633 34.0856H5.92778V14.9972H11.8633V34.0856ZM8.89556 12.3872C6.99389 12.3872 5.45667 10.8461 5.45667 8.94611C5.45667 7.04889 6.99389 5.50778 8.89556 5.50778C10.7928 5.50778 12.3339 7.04889 12.3339 8.94611C12.3339 10.8461 10.7928 12.3872 8.89556 12.3872ZM34.0833 34.0856H28.1572V24.8033C28.1572 22.5889 28.1139 19.7417 25.0733 19.7417C21.9856 19.7417 21.515 22.1533 21.515 24.6428V34.0861H15.5844V14.9972H21.2761V17.6039H21.3572C22.1494 16.1039 24.085 14.5211 26.9717 14.5211C32.975 14.5211 34.0839 18.4733 34.0839 23.615L34.0833 34.0856Z" fill="#A5597D"/>
</svg>
